# xmcd
#
# Track frame offsets:
#	150
#	12785
#	20580
#	28135
#	39635
#	49213
#	60562
#	71319
#	79721
#	89773
#	110166
#	121049
#	130192
#	138727
#	151078
#
# Disc length: 2205 seconds
#
# Revision: 2
# Processed by: cddbd v1.5.2PL0 Copyright (c) Steve Scherf et al.
# Submitted via: EZCDAudioConverter 2.1.7.1
#
DISCID=c8089b0f
DTITLE=V/A - Destroy!
DYEAR=2008
DGENRE=MOJO
TTITLE0=Generation X - Wild Youth
TTITLE1=The Adverts - Bored Teenagers
TTITLE2=Sham 69 - I Don't Wanna
TTITLE3=The Vibrators - London Girls
TTITLE4=The Boys - I Don't Care
TTITLE5=Johnny Thunders and The Heartbreakers - One Track Mind
TTITLE6=Wire - Lowdown
TTITLE7=X-Ray Spex - I Am A Cliche
TTITLE8=Television Personalities - Where's Bill Grundy Now?
TTITLE9=Angelic Upstarts - The Murder Of Liddle Towers
TTITLE10=Alternative TV - Action Time Vision
TTITLE11=Eater - Outside View
TTITLE12=U.K. Subs - C.I.D.
TTITLE13=Johnny Moped - No-One
TTITLE14=The Prefects - Things In General
EXTD=
EXTT0=
EXTT1=
EXTT2=
EXTT3=
EXTT4=
EXTT5=
EXTT6=
EXTT7=
EXTT8=
EXTT9=
EXTT10=
EXTT11=
EXTT12=
EXTT13=
EXTT14=
PLAYORDER=
